<svg width="83" height="51" viewBox="0 0 83 51" fill="none" xmlns="http://www.w3.org/2000/svg">
<path d="M8.82 0.999997H19.25L27.23 50H19.53L18.13 40.27V40.41H9.38L7.98 50H0.84L8.82 0.999997ZM17.22 33.76L13.79 9.54H13.65L10.29 33.76H17.22ZM30.9657 0.999997H40.6257L48.1157 30.33H48.2557V0.999997H55.1157V50H47.2057L37.9657 14.23H37.8257V50H30.9657V0.999997ZM70.8488 50.7C67.1154 50.7 64.2921 49.65 62.3788 47.55C60.4654 45.4033 59.5088 42.3467 59.5088 38.38V35.58H66.7888V38.94C66.7888 42.1133 68.1188 43.7 70.7788 43.7C72.0854 43.7 73.0654 43.3267 73.7188 42.58C74.4188 41.7867 74.7688 40.5267 74.7688 38.8C74.7688 36.7467 74.3021 34.95 73.3688 33.41C72.4354 31.8233 70.7088 29.9333 68.1888 27.74C65.0154 24.94 62.7988 22.42 61.5388 20.18C60.2788 17.8933 59.6488 15.3267 59.6488 12.48C59.6488 8.60667 60.6288 5.62 62.5887 3.52C64.5488 1.37333 67.3954 0.299997 71.1288 0.299997C74.8154 0.299997 77.5921 1.37333 79.4588 3.52C81.3721 5.62 82.3288 8.65333 82.3288 12.62V14.65H75.0488V12.13C75.0488 10.45 74.7221 9.23666 74.0688 8.49C73.4154 7.69666 72.4588 7.3 71.1988 7.3C68.6321 7.3 67.3488 8.86333 67.3488 11.99C67.3488 13.7633 67.8154 15.42 68.7488 16.96C69.7288 18.5 71.4788 20.3667 73.9988 22.56C77.2188 25.36 79.4354 27.9033 80.6488 30.19C81.8621 32.4767 82.4688 35.16 82.4688 38.24C82.4688 42.2533 81.4654 45.3333 79.4588 47.48C77.4988 49.6267 74.6288 50.7 70.8488 50.7Z" fill="#5865F2"/>
</svg>
