<svg width="169" height="105" viewBox="0 0 169 105" fill="none" xmlns="http://www.w3.org/2000/svg">
<path d="M17.144 2.19999H38.6L55.016 103H39.176L36.296 82.984V83.272H18.296L15.416 103H0.728L17.144 2.19999ZM34.424 69.592L27.368 19.768H27.08L20.168 69.592H34.424ZM62.7009 2.19999H82.5729L97.9809 62.536H98.2689V2.19999H112.381V103H96.1089L77.1009 29.416H76.8129V103H62.7009V2.19999ZM144.746 104.44C137.066 104.44 131.258 102.28 127.322 97.96C123.386 93.544 121.418 87.256 121.418 79.096V73.336H136.394V80.248C136.394 86.776 139.13 90.04 144.602 90.04C147.29 90.04 149.306 89.272 150.65 87.736C152.09 86.104 152.81 83.512 152.81 79.96C152.81 75.736 151.85 72.04 149.93 68.872C148.01 65.608 144.458 61.72 139.274 57.208C132.746 51.448 128.186 46.264 125.594 41.656C123.002 36.952 121.706 31.672 121.706 25.816C121.706 17.848 123.722 11.704 127.754 7.384C131.786 2.96799 137.642 0.759995 145.322 0.759995C152.906 0.759995 158.618 2.96799 162.458 7.384C166.394 11.704 168.362 17.944 168.362 26.104V30.28H153.386V25.096C153.386 21.64 152.714 19.144 151.37 17.608C150.026 15.976 148.058 15.16 145.466 15.16C140.186 15.16 137.546 18.376 137.546 24.808C137.546 28.456 138.506 31.864 140.426 35.032C142.442 38.2 146.042 42.04 151.226 46.552C157.85 52.312 162.41 57.544 164.906 62.248C167.402 66.952 168.65 72.472 168.65 78.808C168.65 87.064 166.586 93.4 162.458 97.816C158.426 102.232 152.522 104.44 144.746 104.44Z" fill="#5865F2"/>
</svg>
